<svg xmlns="http://www.w3.org/2000/svg" viewBox="0 0 495.49 495.49">
  <rect x="0" width="495.49" height="495.49" rx="87.17" ry="87.17" style="fill: #fff; stroke-width: 0px;"/>
  <path d="m154.04,397.19v-42.96l82.07-108.49c6.2-8.01,12.06-15.77,17.56-23.3,5.5-7.52,10.01-15.17,13.54-22.94,3.52-7.76,5.29-15.89,5.29-24.39s-1.98-14.8-5.92-18.93c-3.95-4.12-9.31-6.19-16.08-6.19-7.62,0-13.54,1.82-17.77,5.46s-7.13,8.5-8.67,14.56c-1.55,6.07-2.33,12.87-2.33,20.39v14.56h-68.53v-15.66c0-17.47,3.24-33.07,9.73-46.78,6.48-13.71,16.78-24.51,30.88-32.4,14.1-7.88,32.57-11.83,55.42-11.83,30.74,0,53.94,6.86,69.59,20.57,15.65,13.71,23.48,32.83,23.48,57.34,0,11.89-2.19,22.94-6.56,33.13-4.38,10.19-10.15,20.09-17.34,29.67-7.19,9.59-14.88,19.6-23.06,30.04l-62.61,80.46h100.26v47.69h-178.95Z" style="fill: #45aaf2; stroke-width: 0px;"/>
</svg>
